<?xml version="1.0" encoding="utf-8"?>
<!-- Generator: Adobe Illustrator 27.5.0, SVG Export Plug-In . SVG Version: 6.00 Build 0)  -->
<svg version="1.1" id="Calque_1" xmlns="http://www.w3.org/2000/svg" xmlns:xlink="http://www.w3.org/1999/xlink" x="0px" y="0px"
	 viewBox="0 0 520.3 520.3" style="enable-background:new 0 0 520.3 520.3;" xml:space="preserve">
<path d="M29.7,0h460.9c15.6,0,29.7,14.1,29.7,29.7v461c0,15.6-14.1,29.7-29.7,29.7H29.7C14.1,520.3,0,506.3,0,490.6v-461
	C0,14.1,14.1,0,29.7,0z M369.5,292.2h71.9l3.1-68.8h-75v-50.8c0-19.5,3.9-30.5,28.9-30.5h43.8l1.6-64.1c0,0-19.5-3.1-47.6-3.1
	c-68.8,0-99.2,43-99.2,89.1v59.4h-50.8v68.8h50.8v190.6h72.7V292.2z"/>
</svg>
